<mxfile host="65bd71144e">
    <diagram id="C0SI9QhlAcR7aRD9a64C" name="第 1 页">
        <mxGraphModel dx="887" dy="428" grid="1" gridSize="10" guides="1" tooltips="1" connect="1" arrows="1" fold="1" page="1" pageScale="1" pageWidth="1200" pageHeight="1920" math="0" shadow="0">
            <root>
                <mxCell id="0"/>
                <mxCell id="1" parent="0"/>
                <mxCell id="3" value="" style="rounded=0;whiteSpace=wrap;html=1;" vertex="1" parent="1">
                    <mxGeometry x="60" y="90" width="490" height="300" as="geometry"/>
                </mxCell>
                <mxCell id="4" value="完整前端&lt;br&gt;网站应用" style="rounded=0;whiteSpace=wrap;html=1;" vertex="1" parent="1">
                    <mxGeometry x="100" y="140" width="120" height="230" as="geometry"/>
                </mxCell>
                <mxCell id="5" value="前端单体应用" style="text;html=1;strokeColor=none;fillColor=none;align=center;verticalAlign=middle;whiteSpace=wrap;rounded=0;" vertex="1" parent="1">
                    <mxGeometry x="120" y="100" width="80" height="30" as="geometry"/>
                </mxCell>
                <mxCell id="8" value="后端微服务" style="text;html=1;strokeColor=none;fillColor=none;align=center;verticalAlign=middle;whiteSpace=wrap;rounded=0;" vertex="1" parent="1">
                    <mxGeometry x="320" y="100" width="80" height="30" as="geometry"/>
                </mxCell>
                <mxCell id="9" value="网关" style="rounded=0;whiteSpace=wrap;html=1;" vertex="1" parent="1">
                    <mxGeometry x="300" y="140" width="230" height="40" as="geometry"/>
                </mxCell>
                <mxCell id="10" value="微&lt;br&gt;服&lt;br&gt;务&lt;br&gt;A" style="rounded=0;whiteSpace=wrap;html=1;" vertex="1" parent="1">
                    <mxGeometry x="300" y="200" width="40" height="120" as="geometry"/>
                </mxCell>
                <mxCell id="11" value="微&lt;br&gt;服&lt;br&gt;务&lt;br&gt;A" style="rounded=0;whiteSpace=wrap;html=1;" vertex="1" parent="1">
                    <mxGeometry x="370" y="200" width="40" height="120" as="geometry"/>
                </mxCell>
                <mxCell id="12" value="微&lt;br&gt;服&lt;br&gt;务&lt;br&gt;A" style="rounded=0;whiteSpace=wrap;html=1;" vertex="1" parent="1">
                    <mxGeometry x="430" y="200" width="40" height="120" as="geometry"/>
                </mxCell>
                <mxCell id="13" value="微&lt;br&gt;服&lt;br&gt;务&lt;br&gt;A" style="rounded=0;whiteSpace=wrap;html=1;" vertex="1" parent="1">
                    <mxGeometry x="490" y="200" width="40" height="120" as="geometry"/>
                </mxCell>
                <mxCell id="14" value="数据库" style="rounded=0;whiteSpace=wrap;html=1;" vertex="1" parent="1">
                    <mxGeometry x="300" y="340" width="230" height="40" as="geometry"/>
                </mxCell>
                <mxCell id="15" value="" style="shape=flexArrow;endArrow=classic;html=1;endWidth=25;endSize=6.67;" edge="1" parent="1">
                    <mxGeometry width="50" height="50" relative="1" as="geometry">
                        <mxPoint x="240" y="162" as="sourcePoint"/>
                        <mxPoint x="290" y="162" as="targetPoint"/>
                    </mxGeometry>
                </mxCell>
                <mxCell id="16" value="" style="rounded=0;whiteSpace=wrap;html=1;" vertex="1" parent="1">
                    <mxGeometry x="60" y="500" width="490" height="360" as="geometry"/>
                </mxCell>
                <mxCell id="17" value="微前端应用A" style="rounded=0;whiteSpace=wrap;html=1;" vertex="1" parent="1">
                    <mxGeometry x="100" y="610" width="120" height="40" as="geometry"/>
                </mxCell>
                <mxCell id="18" value="前端单体应用" style="text;html=1;strokeColor=none;fillColor=none;align=center;verticalAlign=middle;whiteSpace=wrap;rounded=0;" vertex="1" parent="1">
                    <mxGeometry x="120" y="510" width="80" height="30" as="geometry"/>
                </mxCell>
                <mxCell id="19" value="后端微服务" style="text;html=1;strokeColor=none;fillColor=none;align=center;verticalAlign=middle;whiteSpace=wrap;rounded=0;" vertex="1" parent="1">
                    <mxGeometry x="320" y="510" width="80" height="30" as="geometry"/>
                </mxCell>
                <mxCell id="20" value="网关" style="rounded=0;whiteSpace=wrap;html=1;" vertex="1" parent="1">
                    <mxGeometry x="100" y="550" width="430" height="40" as="geometry"/>
                </mxCell>
                <mxCell id="25" value="数据库" style="rounded=0;whiteSpace=wrap;html=1;" vertex="1" parent="1">
                    <mxGeometry x="310" y="810" width="230" height="40" as="geometry"/>
                </mxCell>
                <mxCell id="27" value="&lt;b&gt;&lt;font style=&quot;font-size: 18px;&quot;&gt;微前端架构&lt;/font&gt;&lt;/b&gt;" style="text;html=1;strokeColor=none;fillColor=none;align=center;verticalAlign=middle;whiteSpace=wrap;rounded=0;" vertex="1" parent="1">
                    <mxGeometry x="60" y="470" width="490" height="30" as="geometry"/>
                </mxCell>
                <mxCell id="28" value="&lt;b&gt;&lt;font style=&quot;font-size: 18px;&quot;&gt;微前端架构&lt;/font&gt;&lt;/b&gt;" style="text;html=1;strokeColor=none;fillColor=none;align=center;verticalAlign=middle;whiteSpace=wrap;rounded=0;" vertex="1" parent="1">
                    <mxGeometry x="60" y="60" width="490" height="30" as="geometry"/>
                </mxCell>
                <mxCell id="29" value="微前端应用A" style="rounded=0;whiteSpace=wrap;html=1;" vertex="1" parent="1">
                    <mxGeometry x="100" y="670" width="120" height="40" as="geometry"/>
                </mxCell>
                <mxCell id="30" value="微前端应用A" style="rounded=0;whiteSpace=wrap;html=1;" vertex="1" parent="1">
                    <mxGeometry x="100" y="730" width="120" height="40" as="geometry"/>
                </mxCell>
                <mxCell id="35" value="微服务应用A" style="rounded=0;whiteSpace=wrap;html=1;" vertex="1" parent="1">
                    <mxGeometry x="355" y="610" width="120" height="40" as="geometry"/>
                </mxCell>
                <mxCell id="38" value="微服务应用A" style="rounded=0;whiteSpace=wrap;html=1;" vertex="1" parent="1">
                    <mxGeometry x="355" y="670" width="120" height="40" as="geometry"/>
                </mxCell>
                <mxCell id="39" value="微服务应用A" style="rounded=0;whiteSpace=wrap;html=1;" vertex="1" parent="1">
                    <mxGeometry x="355" y="730" width="120" height="40" as="geometry"/>
                </mxCell>
                <mxCell id="40" value="" style="shape=flexArrow;endArrow=classic;html=1;endWidth=25;endSize=6.67;" edge="1" parent="1">
                    <mxGeometry width="50" height="50" relative="1" as="geometry">
                        <mxPoint x="270" y="629.5" as="sourcePoint"/>
                        <mxPoint x="320" y="629.5" as="targetPoint"/>
                    </mxGeometry>
                </mxCell>
                <mxCell id="41" value="" style="shape=flexArrow;endArrow=classic;html=1;endWidth=25;endSize=6.67;" edge="1" parent="1">
                    <mxGeometry width="50" height="50" relative="1" as="geometry">
                        <mxPoint x="270" y="689.5" as="sourcePoint"/>
                        <mxPoint x="320" y="689.5" as="targetPoint"/>
                    </mxGeometry>
                </mxCell>
                <mxCell id="42" value="" style="shape=flexArrow;endArrow=classic;html=1;endWidth=25;endSize=6.67;" edge="1" parent="1">
                    <mxGeometry width="50" height="50" relative="1" as="geometry">
                        <mxPoint x="270" y="749.5" as="sourcePoint"/>
                        <mxPoint x="320" y="749.5" as="targetPoint"/>
                    </mxGeometry>
                </mxCell>
            </root>
        </mxGraphModel>
    </diagram>
</mxfile>